# xmcd CD database file generated by RipIT.
#
# Track frame offsets:
#	150
#	20439
#	38077
#	52885
#	80283
#	105298
#	126203
#	145667
#	166221
#	185352
#	205753
#
# Disc length: 2965 seconds
#
# Revision: 1
# Processed by: cddbd v1.5.1PL2 Copyright (c) Steve Scherf et al.
# Submitted via: RipIT 3.4 www.suwald.com/ripit/ripit.html at Mon Jan 9 10:36:42 CET 2006.
#
DISCID=7f0b930b
DTITLE=The Cardigans - Long Gone Before Daylight
DYEAR=2003
DGENRE=Trip-Hop
TTITLE0=Communication
TTITLE1=You're The Storm
TTITLE2=A Good Horse
TTITLE3=And Then You Kissed Me
TTITLE4=Couldn't Care Less
TTITLE5=Please Sister
TTITLE6=For What It's Worth
TTITLE7=Lead Me Into The Night
TTITLE8=Live And Learn
TTITLE9=Feathers And Down
TTITLE10=03.45: No Sleep
EXTD=ID3G: 27 YEAR: 2003
EXTT0=
EXTT1=
EXTT2=
EXTT3=
EXTT4=
EXTT5=
EXTT6=
EXTT7=
EXTT8=
EXTT9=
EXTT10=
PLAYORDER=
